# xmcd CD database file
#
# Track frame offsets:
#	150
#	27334
#	51575
#	72036
#	83308
#	120612
#	132615
#	154916
#	178374
#	200460
#	230390
#	241859
#	266953
#	285200
#	305893
#
# Disc length: 4443 seconds
#
# Revision: 2
# Processed by: cddbd v1.5.2PL0 Copyright (c) Steve Scherf et al.
# Submitted via: CDex 1.96
#
DISCID=d911590f
DTITLE=Geshe Thubten Ngawang - Healing the Heart
DYEAR=2002
DGENRE=New Age
TTITLE0=Request to My Root Lama Lobsang Jampa...
TTITLE1=Praise to Tara in 21 Homages
TTITLE2=Prayer und Mantras of the Three Long Life... 
TTITLE3=Tea Offering Prayers
TTITLE4=Heartsytra 
TTITLE5=Offering One's Virtues 
TTITLE6=Inviting Padmasambhava, Mantra and Request 
TTITLE7=Request to Tsongkhapa
TTITLE8=Blessing of the Ground 
TTITLE9=Prayer for the Practice of Lamrim
TTITLE10=Taking Refuge in the Three Jewels 
TTITLE11=Prayer to Be Able to Complete One's...
TTITLE12=Dedication 
TTITLE13=Prayer for the Long Life of H.H. the Dalai 
TTITLE14=Request and Prayer to Avalokitesvara 
EXTD=YEAR: 2002
EXTT0=
EXTT1=
EXTT2=
EXTT3=
EXTT4=
EXTT5=
EXTT6=
EXTT7=
EXTT8=
EXTT9=
EXTT10=
EXTT11=
EXTT12=
EXTT13=
EXTT14=
PLAYORDER=
